<svg class="img-fluid" id="outputsvg" xmlns="http://www.w3.org/2000/svg"
    style="transform: matrix(1.44804, 0, 0, 1.44804, 0, 0); transform-origin: 50% 50%; cursor: move; max-height: none; transition: transform 200ms ease-in-out 0s;"
    width="1398" height="1106" viewBox="0 0 13980 11060">
    <g id="l1l7CTUCDFUVd5Ugyh1qQxQj" fill="rgb(0,0,0)" stroke="rgb(0,0,0)" stroke-width="1"
        fill-rule="evenodd" style="transform: none;">
        <g>
            <path id="pvrhqOIz2"
                d="M6684 6425 C6500 6384 6311 6277 6262 6185 C6250 6164 6245 6128 6245 6070 C6245 5974 6262 5929 6321 5873 C6380 5817 6416 5805 6510 5805 C6588 5805 6600 5807 6645 5835 C6711 5876 6755 5936 6770 6005 C6790 6102 6764 6186 6683 6280 C6621 6352 6632 6363 6774 6368 C6865 6371 6882 6369 6921 6349 C7017 6300 7055 6262 7098 6174 C7145 6076 7154 5998 7140 5803 C7130 5659 7101 5426 7084 5352 C7080 5331 7075 5330 6957 5330 C6829 5331 6759 5319 6621 5274 C6526 5243 6517 5238 6395 5166 C6241 5076 6103 4932 6041 4799 C5989 4685 5982 4664 5964 4574 C5908 4295 5982 3953 6155 3689 C6228 3578 6397 3377 6582 3182 L6745 3010 6718 2825 C6655 2395 6657 2173 6725 1910 C6767 1749 6879 1601 7005 1538 C7066 1508 7083 1505 7154 1505 C7273 1505 7344 1535 7435 1625 C7556 1743 7605 1881 7597 2075 C7588 2278 7504 2479 7328 2717 C7252 2820 7079 2998 6982 3075 L6919 3125 6925 3195 C6928 3233 6935 3298 6940 3340 C6944 3381 6960 3536 6975 3685 C6990 3833 7004 3961 7006 3968 C7009 3979 7013 3979 7024 3970 C7049 3949 7182 3920 7250 3920 C7477 3921 7661 4013 7795 4195 C7864 4288 7890 4367 7890 4484 C7890 4759 7700 5044 7408 5207 C7339 5246 7239 5287 7193 5295 C7175 5299 7157 5305 7155 5309 C7152 5313 7164 5449 7180 5610 C7214 5950 7215 5983 7194 6081 C7161 6238 7080 6355 6969 6403 C6893 6437 6777 6446 6684 6425 M6823 5200 C6521 5113 6323 4845 6254 4430 C6202 4114 6302 3718 6492 3488 C6552 3415 6538 3428 6669 3321 C6725 3275 6773 3239 6775 3241 C6778 3245 6819 3530 6850 3770 C6856 3811 6866 3887 6874 3940 C6887 4033 6887 4035 6866 4049 C6812 4084 6680 4232 6656 4283 C6599 4408 6586 4552 6621 4650 C6649 4725 6756 4866 6805 4892 C6816 4898 6810 4886 6789 4863 C6705 4773 6662 4595 6695 4469 C6723 4360 6777 4280 6863 4221 L6906 4191 6938 4408 C6971 4629 7003 4831 7019 4930 C7024 4960 7033 5023 7040 5070 C7046 5116 7055 5166 7060 5181 C7067 5206 7066 5207 7019 5213 C6938 5224 6893 5221 6823 5200 M7135 5162 C7132 5147 7125 5090 7120 5035 C7114 4980 7092 4764 7070 4555 C7048 4347 7030 4168 7030 4158 C7030 4142 7038 4140 7088 4140 C7166 4140 7233 4164 7302 4217 C7452 4331 7550 4527 7550 4713 C7550 4924 7417 5097 7200 5170 L7140 5190 7135 5162 M6883 2842 C6885 2838 6881 2785 6874 2725 C6817 2249 6950 1850 7165 1850 C7254 1850 7307 1891 7345 1992 C7375 2075 7356 2229 7303 2333 C7251 2434 7112 2614 6975 2758 C6936 2798 6903 2835 6902 2840 C6901 2845 6895 2850 6890 2850 C6884 2850 6881 2846 6883 2842 "></path>
            <path id="p18WYAojOp"
                d="M5095 5821 C5060 5783 5060 5718 5094 5684 L5119 5660 5478 5660 C5702 5660 5848 5663 5867 5670 C5922 5689 5937 5767 5895 5819 L5870 5850 5495 5850 L5120 5850 5095 5821 "></path>
            <path id="p1Drc65xhd"
                d="M7685 5822 C7672 5807 7658 5783 7654 5768 C7647 5737 7670 5685 7699 5670 C7713 5662 7903 5660 8285 5662 L8851 5665 8870 5688 C8899 5723 8896 5790 8865 5823 L8840 5850 8275 5850 L7710 5850 7685 5822 "></path>
            <path id="p12rUosiRj"
                d="M4627 4967 C4598 4947 4594 4938 4591 4892 C4589 4842 4590 4839 4621 4820 C4653 4800 4671 4800 5161 4800 L5668 4800 5699 4825 C5739 4859 5741 4911 5704 4952 L5680 4980 5170 4985 L4660 4990 4627 4967 "></path>
            <path id="p0FEPf1qv"
                d="M8179 4969 C8123 4932 8117 4869 8166 4824 L8192 4800 8800 4800 L9408 4800 9439 4825 C9479 4859 9481 4911 9444 4952 L9420 4980 8815 4985 C8222 4989 8209 4989 8179 4969 "></path>
            <path id="psW4MInD0"
                d="M4247 4112 C4209 4084 4200 4066 4202 4026 C4203 3998 4211 3982 4231 3965 C4256 3944 4271 3941 4402 3935 C4480 3932 4752 3931 5005 3933 C5505 3936 5510 3937 5529 3992 C5549 4051 5534 4093 5482 4118 C5466 4126 5283 4130 4865 4130 C4319 4130 4268 4128 4247 4112 "></path>
            <path id="p5zcSOJe4"
                d="M8170 4104 C8097 4041 8135 3948 8240 3934 C8259 3932 8596 3933 8989 3936 L9704 3943 9732 3970 C9771 4009 9770 4057 9730 4093 L9700 4120 8950 4125 L8200 4130 8170 4104 "></path>
            <path id="pNKeTkINC"
                d="M4557 3260 C4485 3240 4465 3157 4520 3104 L4551 3075 5243 3075 C5806 3075 5941 3077 5967 3088 C6027 3113 6035 3213 5979 3247 C5955 3263 4608 3275 4557 3260 "></path>
            <path id="phxta5yUe"
                d="M7320 3255 C7260 3226 7250 3152 7300 3104 L7331 3075 8371 3076 L9411 3077 9440 3105 C9479 3142 9481 3197 9445 3234 L9420 3260 8385 3265 C7504 3269 7345 3267 7320 3255 "></path>
            <path id="pEoJTo4fP"
                d="M5043 2400 C4996 2383 4970 2350 4970 2307 C4970 2258 5005 2223 5063 2214 C5086 2211 5360 2210 5671 2211 C6226 2214 6239 2215 6266 2235 C6302 2262 6315 2302 6299 2340 C6274 2401 6295 2399 5655 2405 C5297 2408 5059 2406 5043 2400 "></path>
            <path id="pfLphJmHu"
                d="M7915 2399 C7897 2393 7874 2380 7865 2370 C7848 2351 7842 2298 7853 2263 C7868 2216 7891 2214 8425 2215 C8891 2215 8926 2216 8951 2233 C9008 2271 9006 2341 8947 2381 C8922 2398 8884 2400 8435 2405 C8102 2408 7939 2406 7915 2399 "></path>
        </g>
    </g>
</svg>