<svg class="img-fluid" id="outputsvg" xmlns="http://www.w3.org/2000/svg"
    style="transform: none; transform-origin: 50% 50%; cursor: move; max-height: none;" width="574"
    height="714" viewBox="0 0 5740 7140">
    <g id="l4RhvpefxK9vymo0uoTIAoR" fill="rgb(255,255,255)" style="transform: none;">
        <g>
            <path id="pmSONCknv"
                d="M2330 6803 c-85 -9 -274 -46 -377 -74 -671 -179 -1272 -668 -1573 -1279 -76 -155 -144 -327 -144 -367 0 -64 76 -107 136 -79 28 14 38 29 67 104 245 637 715 1115 1336 1358 391 152 879 194 1275 108 312 -68 575 -179 834 -353 243 -163 426 -347 611 -615 47 -68 78 -103 102 -114 33 -15 36 -15 71 3 43 24 65 63 56 101 -10 38 -134 224 -214 318 -409 488 -998 810 -1610 881 -114 13 -475 18 -570 8z"></path>
            <path id="pHLgKIr4S"
                d="M2455 6430 c-353 -71 -559 -485 -400 -803 73 -144 208 -230 386 -244 175 -14 330 84 386 242 25 73 24 206 -3 266 -43 94 -129 160 -230 175 -85 12 -190 -41 -248 -128 -44 -64 -46 -104 -10 -147 21 -26 33 -31 68 -31 44 0 49 3 107 73 65 78 147 19 137 -100 -5 -57 -25 -92 -71 -127 -33 -24 -125 -33 -184 -17 -63 17 -134 70 -163 121 -22 40 -25 56 -25 150 0 93 3 112 27 162 33 72 108 153 169 184 102 51 247 50 355 -3 61 -30 161 -128 192 -189 40 -79 54 -150 50 -253 -9 -206 -71 -293 -488 -680 -430 -400 -637 -673 -716 -941 -29 -100 -27 -327 4 -434 98 -340 387 -590 736 -636 236 -32 515 85 674 282 106 131 148 227 180 409 14 85 14 106 3 180 -39 240 -157 405 -363 509 -108 54 -206 74 -332 67 -223 -11 -396 -129 -503 -344 -42 -84 -46 -99 -51 -185 -3 -67 0 -111 12 -158 20 -78 91 -196 149 -246 90 -78 242 -124 361 -110 30 4 85 22 123 40 162 78 250 232 222 390 -26 150 -137 253 -276 255 -136 2 -273 -112 -273 -229 0 -66 57 -107 123 -89 26 7 40 20 60 58 29 53 41 61 92 61 61 0 100 -82 76 -160 -14 -47 -75 -102 -130 -118 -128 -39 -259 21 -317 143 -19 39 -24 67 -24 126 0 67 4 85 35 146 84 168 249 249 445 220 129 -19 270 -125 327 -247 73 -154 68 -312 -14 -480 -45 -93 -158 -210 -248 -257 -182 -95 -360 -96 -547 -2 -146 73 -292 240 -342 393 -46 138 -41 303 16 449 64 167 257 411 525 664 447 422 518 500 593 651 186 374 -19 835 -416 936 -65 17 -191 19 -259 6z"></path>
            <path id="prtpUjLyA"
                d="M1620 6139 c-187 -100 -316 -195 -460 -339 -145 -145 -212 -228 -311 -385 -76 -120 -177 -331 -212 -440 -33 -102 -83 -334 -96 -450 -39 -333 33 -738 190 -1071 61 -131 82 -154 140 -154 52 0 80 26 86 80 4 39 -2 59 -50 155 -60 123 -114 284 -149 450 -21 99 -23 135 -22 350 1 232 2 245 32 375 81 349 232 633 475 894 151 163 266 250 472 361 99 53 110 65 110 126 0 43 -4 54 -28 75 -15 13 -40 24 -55 24 -15 0 -70 -23 -122 -51z"></path>
            <path id="pzD2hDvNL"
                d="M3425 6147 c-17 -14 -28 -36 -32 -63 -7 -55 14 -77 157 -159 428 -246 752 -696 865 -1198 107 -477 18 -994 -243 -1403 -62 -98 -67 -114 -48 -158 24 -57 91 -73 140 -35 60 48 205 311 270 491 82 230 120 450 120 703 0 317 -58 580 -194 880 -37 80 -149 271 -194 330 -207 270 -373 414 -707 613 -48 29 -100 28 -134 -1z"></path>
            <path id="pgiwWfNWY"
                d="M4918 4131 c-32 -26 -41 -54 -63 -191 -19 -121 -96 -375 -156 -517 -235 -557 -687 -995 -1259 -1223 -410 -163 -885 -202 -1339 -109 -300 61 -667 235 -907 430 -118 96 -307 283 -388 384 -105 131 -206 293 -281 449 -72 148 -97 174 -155 161 -40 -9 -80 -52 -80 -85 0 -39 123 -293 205 -425 301 -482 781 -857 1325 -1034 146 -47 352 -97 430 -103 51 -4 44 -26 -20 -71 -92 -64 -235 -203 -304 -294 -125 -167 -229 -421 -267 -656 -24 -146 -21 -178 17 -203 23 -15 34 -16 107 -5 130 20 243 51 372 102 66 26 123 45 126 41 4 -4 16 -38 28 -76 38 -118 137 -298 237 -427 82 -107 113 -105 206 14 36 47 78 103 92 126 47 73 124 234 147 303 13 41 27 68 36 68 7 0 35 -11 61 -24 75 -38 296 -105 403 -122 89 -14 100 -14 128 1 18 9 34 26 37 42 11 42 -34 288 -73 402 -83 247 -184 410 -355 576 -62 61 -141 127 -176 148 -89 53 -85 57 68 86 102 20 264 69 400 123 594 235 1095 719 1349 1302 99 227 201 596 201 728 0 69 -99 120 -152 79z m-2205 -2332 c37 -11 67 -25 67 -30 0 -22 -60 -221 -85 -279 -15 -36 -31 -75 -34 -88 -5 -19 -15 -2 -53 85 -52 122 -95 270 -82 283 8 8 102 48 115 49 3 1 36 -8 72 -20z m-338 -166 c29 -104 57 -176 113 -290 65 -132 67 -121 -53 -229 -143 -128 -263 -197 -452 -258 -125 -40 -153 -44 -153 -20 0 33 51 213 83 294 55 139 181 334 269 417 27 25 167 139 175 142 1 1 10 -25 18 -56z m608 25 c69 -48 188 -162 240 -231 105 -139 182 -306 227 -495 l28 -113 -42 6 c-199 33 -440 161 -597 316 -75 73 -91 103 -70 125 33 33 133 272 151 360 6 30 16 54 22 54 5 0 24 -10 41 -22z m-298 -602 c14 -19 59 -62 100 -96 41 -34 75 -69 75 -79 0 -56 -119 -328 -180 -410 -31 -42 -32 -43 -50 -25 -56 59 -160 278 -182 385 l-12 61 28 22 c16 11 63 55 105 97 42 42 79 77 83 77 4 1 19 -13 33 -32z"></path>
            <path id="pIsock0ir"
                d="M1315 4037 c-22 -12 -50 -38 -63 -57 -20 -30 -23 -44 -20 -99 4 -59 7 -66 45 -102 78 -73 171 -72 238 2 127 141 -35 349 -200 256z"></path>
            <path id="puYQvSZme"
                d="M1416 3437 c-22 -12 -53 -39 -70 -60 -26 -32 -31 -48 -34 -105 -3 -60 -1 -72 26 -113 42 -65 121 -104 195 -96 135 16 215 159 158 282 -22 47 -64 89 -104 104 -48 19 -128 13 -171 -12z"></path>
            <path id="phBTEZwcE"
                d="M3534 3216 c-188 -87 -233 -335 -87 -478 67 -65 127 -90 218 -90 128 1 218 60 273 180 20 45 23 65 20 130 -6 124 -56 202 -164 256 -72 36 -186 37 -260 2z"></path>
            <path id="pkqHZJTld"
                d="M1930 2932 c-170 -88 -171 -326 -1 -414 205 -107 425 99 327 307 -57 124 -203 172 -326 107z"></path>
            <path id="pKWl9Xx1B"
                d="M2791 2839 c-127 -25 -211 -129 -211 -261 1 -183 172 -308 347 -253 179 56 240 274 121 427 -52 67 -166 106 -257 87z"></path>
        </g>
    </g>
</svg>