<svg class="img-fluid" id="outputsvg" xmlns="http://www.w3.org/2000/svg"
    style="transform: none; transform-origin: 50% 50%; cursor: move;" width="798" height="748"
    viewBox="0 0 7980 7480">
    <g id="l7NhsAryYRxg2YTZdsfFDl0j" fill="rgb(255,255,255)" stroke="rgb(255,255,255)"
        stroke-width="1" fill-rule="evenodd" style="transform: none;">
        <g>
            <path id="p1GpU2aaW5"
                d="M3915 7187 C3912 7175 3910 7036 3910 6879 L3910 6593 3792 6580 C2995 6497 2400 6317 1874 5998 C1469 5752 1135 5421 886 5018 C658 4648 486 4166 414 3695 C361 3349 355 3260 355 2840 C355 2483 358 2411 377 2240 C402 2022 437 1756 445 1722 C451 1694 463 1694 616 1720 C951 1778 1266 1853 1524 1936 C1649 1977 1645 1978 1674 1886 C1719 1747 1817 1490 1891 1320 C1970 1137 2113 850 2124 850 C2142 850 2425 1000 2585 1095 C2760 1198 2925 1305 3061 1401 C3115 1439 3162 1470 3167 1470 C3172 1470 3216 1417 3265 1352 C3369 1213 3502 1051 3618 920 C3738 784 3961 560 3975 560 C3986 560 4189 770 4345 945 C4447 1058 4583 1225 4683 1356 C4725 1412 4764 1461 4770 1465 C4776 1469 4809 1453 4843 1429 C4965 1343 5197 1191 5295 1133 C5491 1016 5799 850 5820 850 C5831 850 5970 1131 6054 1324 C6118 1471 6219 1731 6259 1851 C6276 1904 6296 1953 6303 1959 C6312 1966 6351 1958 6440 1930 C6783 1822 7461 1677 7489 1705 C7494 1710 7508 1773 7519 1845 C7599 2361 7614 3049 7554 3525 C7420 4600 6950 5419 6171 5934 C5622 6297 4954 6507 4102 6585 L4030 6592 4025 6896 L4020 7200 3970 7205 C3924 7209 3919 7208 3915 7187 M3502 6434 C3487 6432 3418 6420 3350 6408 C2367 6244 1598 5815 1119 5165 C869 4825 682 4407 580 3960 C484 3540 454 3217 463 2730 C470 2412 479 2291 528 1901 C536 1838 551 1816 580 1824 C588 1827 624 1833 660 1839 C869 1875 1217 1958 1434 2024 C1589 2071 1600 2076 1600 2099 C1600 2110 1582 2190 1560 2277 C1439 2754 1387 3251 1420 3605 C1449 3918 1487 4113 1571 4370 C1753 4928 2082 5392 2600 5820 C2820 6003 3205 6246 3492 6384 C3582 6427 3587 6450 3502 6434 M4379 6426 C4385 6419 4413 6402 4442 6389 C4515 6356 4756 6224 4868 6155 C5168 5973 5399 5792 5640 5550 C5889 5299 6070 5049 6215 4755 C6422 4333 6516 3936 6524 3450 C6531 3031 6488 2668 6382 2270 C6329 2069 6327 2081 6435 2047 C6725 1955 7263 1830 7366 1830 C7406 1829 7406 1829 7430 2027 C7469 2343 7482 2603 7476 2955 C7468 3481 7412 3854 7278 4270 C6902 5434 5985 6169 4617 6404 C4416 6439 4367 6443 4379 6426 M4030 5756 L4030 5102 4740 4393 C5131 4003 5455 3683 5462 3681 C5477 3675 5465 3972 5445 4115 C5361 4695 5104 5236 4655 5781 C4545 5914 4174 6294 4080 6370 L4030 6410 4030 5756 M3730 6247 C3401 5932 3206 5705 3013 5415 C2702 4949 2530 4484 2480 3981 C2465 3833 2466 3680 2482 3680 C2489 3680 2813 3998 3202 4387 L3910 5094 3910 5747 C3910 6175 3906 6400 3900 6400 C3894 6400 3818 6331 3730 6247 M3477 6251 C3207 6112 2940 5943 2715 5768 C2571 5656 2273 5362 2167 5228 C1819 4788 1621 4315 1550 3752 C1514 3471 1524 3059 1575 2740 C1643 2312 1786 1840 1995 1360 C2073 1180 2154 1014 2169 1005 C2189 992 2526 1181 2795 1354 C2907 1427 3074 1545 3088 1563 C3097 1573 3082 1603 3026 1690 C2646 2277 2420 2879 2368 3444 C2351 3625 2363 4013 2389 4170 C2468 4637 2632 5044 2911 5464 C3085 5725 3208 5875 3462 6136 C3599 6277 3635 6320 3615 6320 C3612 6320 3550 6289 3477 6251 M4320 6314 C4320 6311 4377 6248 4447 6176 C4848 5761 5079 5443 5279 5028 C5438 4697 5529 4388 5570 4033 C5588 3872 5577 3426 5551 3265 C5486 2864 5368 2515 5167 2121 C5095 1980 4980 1784 4898 1662 C4871 1623 4850 1584 4850 1577 C4850 1563 5006 1447 5165 1345 C5350 1225 5745 999 5771 1000 C5789 1000 5975 1411 6074 1675 C6385 2495 6483 3244 6368 3909 C6198 4897 5562 5686 4494 6235 C4328 6320 4320 6324 4320 6314 M4030 4122 L4030 3314 4563 2781 C4975 2369 5098 2251 5107 2261 C5159 2327 5306 2710 5364 2932 C5419 3142 5460 3372 5460 3469 L5460 3515 4750 4222 C4359 4611 4037 4930 4035 4930 C4032 4930 4030 4566 4030 4122 M3183 4211 L2477 3502 2484 3418 C2499 3243 2554 2989 2620 2783 C2687 2576 2815 2270 2841 2254 C2847 2250 3073 2468 3381 2776 L3910 3304 3910 4112 C3910 4644 3906 4920 3900 4920 C3894 4920 3572 4600 3183 4211 M4030 1960 C4030 1311 4033 780 4037 779 C4041 779 4079 817 4121 862 C4406 1172 4630 1455 4812 1735 C4913 1890 5040 2111 5040 2131 C5040 2143 4047 3140 4035 3140 C4032 3140 4030 2609 4030 1960 M3393 2631 L2897 2132 2944 2044 C3070 1811 3284 1498 3501 1231 C3586 1127 3823 858 3874 810 L3909 776 3910 1953 C3910 2731 3906 3130 3900 3130 C3894 3130 3666 2905 3393 2631 "></path>
        </g>
    </g>
</svg>