<svg class="img-fluid" id="outputsvg" xmlns="http://www.w3.org/2000/svg"
    style="transform: none; transform-origin: 50% 50%; cursor: move; max-height: none;" width="699"
    height="553" viewBox="0 0 6990 5530">
    <g id="l7L6OEV1RfQFANON33J27xL" fill="rgb(45,45,45)" style="transform: none;">
        <g>
            <path id="pPnns1UBK"
                d="M4199 4433 c-57 -9 -131 -66 -163 -123 l-31 -55 -3 -227 -4 -226 -36 -10 c-29 -8 -4 -10 108 -10 119 0 138 2 108 11 l-38 11 0 293 0 294 37 16 c46 19 144 13 189 -10 42 -22 93 -75 110 -116 11 -26 14 -88 14 -267 l0 -234 48 2 c42 1 43 2 10 5 l-37 4 -3 237 c-3 222 -4 240 -25 278 -25 47 -73 91 -120 110 -35 15 -124 24 -164 17z"></path>
            <path id="pjv3XyOBG"
                d="M4813 4430 c-54 -11 -94 -32 -132 -70 l-31 -32 0 51 c0 28 -4 51 -10 51 -6 0 -10 -43 -10 -110 0 -111 13 -148 23 -64 5 52 29 89 77 122 101 68 270 49 344 -38 14 -17 26 -37 26 -44 0 -6 -77 -50 -171 -96 -202 -100 -242 -126 -269 -179 -32 -64 -23 -120 28 -174 51 -54 98 -72 192 -72 93 0 130 13 187 67 l32 31 6 -39 c11 -67 13 -62 14 34 1 60 -3 91 -9 87 -5 -3 -10 -15 -10 -25 0 -30 -60 -91 -115 -116 -69 -32 -152 -32 -222 0 -50 24 -93 69 -79 84 4 4 91 50 194 102 205 104 238 133 249 217 19 139 -142 249 -314 213z"></path>
            <path id="p1835PjjEN"
                d="M5740 4427 c-285 -80 -318 -498 -50 -630 35 -17 63 -22 125 -22 75 0 85 3 138 35 32 19 64 45 73 57 23 36 33 27 37 -34 2 -40 4 -29 5 37 2 92 1 94 -14 65 -65 -126 -233 -184 -353 -123 l-46 24 -3 267 -2 266 42 22 c58 30 143 36 206 15 58 -20 129 -78 157 -130 26 -48 41 -46 16 2 -24 48 -98 116 -147 137 -52 22 -131 27 -184 12z"></path>
            <path id="ptnNEWJRP"
                d="M3120 4420 c0 -5 15 -10 34 -10 31 0 34 -3 40 -37 8 -50 8 -366 0 -481 l-7 -91 -36 -9 c-30 -8 -17 -10 70 -11 93 -1 108 1 114 17 4 9 40 107 82 217 41 109 78 205 82 213 5 8 40 -73 92 -215 l85 -228 104 -1 c90 -2 100 0 68 9 l-38 11 0 303 0 303 40 0 c22 0 40 5 40 10 0 6 -55 10 -145 10 -90 0 -145 -4 -145 -10 0 -5 18 -10 40 -10 l40 0 0 -287 -1 -288 -48 125 c-26 69 -76 203 -112 298 -35 94 -68 172 -74 172 -5 0 -57 -128 -114 -283 -57 -155 -108 -286 -112 -291 -5 -6 -9 116 -9 272 l0 282 40 0 c22 0 40 5 40 10 0 6 -35 10 -85 10 -50 0 -85 -4 -85 -10z"></path>
            <path id="psXa6Y9RD"
                d="M5180 4420 c0 -5 16 -10 35 -10 l35 0 0 -303 0 -303 -37 -11 c-31 -9 -11 -10 107 -11 120 0 138 2 103 11 l-43 10 0 303 0 304 40 0 c22 0 40 5 40 10 0 6 -53 10 -140 10 -87 0 -140 -4 -140 -10z"></path>
            <path id="pSyZTjM9g"
                d="M3486 3664 c-171 -41 -308 -173 -352 -339 -20 -74 -18 -115 5 -115 16 0 19 9 23 59 11 156 156 314 329 361 72 19 231 9 302 -19 l57 -22 0 -585 0 -584 -70 0 c-63 0 -70 -2 -70 -20 0 -20 7 -20 275 -20 268 0 275 0 275 20 0 18 -7 20 -75 20 l-75 0 0 419 c0 230 -4 441 -10 470 -48 256 -335 423 -614 355z"></path>
            <path id="pU5ebTwS6"
                d="M5385 3676 c-5 -2 -35 -12 -65 -21 -133 -40 -283 -168 -352 -300 -61 -117 -82 -203 -82 -330 0 -131 18 -207 73 -320 116 -235 371 -375 609 -335 249 42 441 226 502 483 82 340 -98 691 -409 801 -51 18 -245 33 -276 22z m246 -52 c30 -9 80 -30 112 -47 l57 -32 0 -522 0 -523 -52 -30 c-73 -42 -139 -61 -232 -67 -97 -7 -169 8 -263 54 -69 34 -73 37 -73 69 0 19 0 256 -1 527 l0 492 43 28 c99 64 285 87 409 51z"></path>
            <path id="paP3iSYxq"
                d="M4350 3650 c0 -18 7 -20 70 -20 l70 0 1 -232 c0 -294 0 -454 0 -745 l-1 -233 -70 0 c-63 0 -70 -2 -70 -20 0 -20 7 -20 275 -20 268 0 275 0 275 20 0 18 -7 20 -75 20 l-75 0 0 605 0 605 75 0 c68 0 75 2 75 20 0 20 -7 20 -275 20 -268 0 -275 0 -275 -20z"></path>
        </g>
    </g>
</svg>