<svg class="img-fluid" id="outputsvg" xmlns="http://www.w3.org/2000/svg"
    style="transform: none; transform-origin: 50% 50%; cursor: move;" width="308" height="336"
    viewBox="0 0 3080 3360">
    <g id="l6jTXjx9K7hsYK1Dn292zQT" fill="rgb(105,95,17)" style="transform: none;">
        <g>
            <path id="pi6QpLvNo"
                d="M1390 2935 l-235 -235 158 -158 157 -157 -79 -79 -80 -79 -155 159 -155 159 -235 -235 c-130 -129 -236 -239 -236 -244 0 -6 15 -25 33 -44 29 -30 30 -34 15 -43 -16 -9 -14 -14 21 -51 31 -32 45 -40 65 -36 28 6 63 -21 39 -29 -20 -7 -16 -22 14 -53 23 -25 28 -26 41 -13 13 13 19 11 46 -16 l31 -31 -158 -158 -157 -157 231 -238 c127 -130 236 -237 242 -237 7 0 82 70 167 155 l155 155 77 -77 78 -78 -157 -157 -158 -158 238 -238 237 -237 237 237 238 238 -158 158 -157 157 80 80 80 80 158 -158 157 -157 238 238 237 237 -157 158 -158 157 158 157 157 158 -237 237 -238 238 -157 -157 -158 -158 -80 80 -80 80 157 157 158 158 -235 235 c-129 129 -237 235 -240 235 -3 0 -111 -106 -240 -235z m323 -153 l77 -77 -80 -80 -80 -80 -80 80 -80 80 77 77 c43 43 80 78 83 78 3 0 40 -35 83 -78z m-633 -637 l75 -75 -80 -80 -80 -80 -77 77 -78 78 77 77 c43 43 80 78 83 78 3 0 39 -34 80 -75z m633 -3 l77 -77 -80 -80 -80 -80 -80 80 -80 80 77 77 c43 43 80 78 83 78 3 0 40 -35 83 -78z m630 0 l77 -77 -78 -78 -77 -77 -80 80 -80 80 75 75 c41 41 77 75 80 75 3 0 40 -35 83 -78z m-943 -317 l75 -75 -80 -80 -80 -80 -80 80 -80 80 75 75 c41 41 79 75 85 75 6 0 44 -34 85 -75z m630 0 l74 -75 -74 -75 c-41 -41 -79 -75 -85 -75 -6 0 -44 34 -85 75 l-74 75 74 75 c41 41 79 75 85 75 6 0 44 -34 85 -75z m-1120 -75 c-7 -17 -15 -28 -18 -26 -2 3 1 19 8 36 7 17 15 28 18 26 2 -3 -1 -19 -8 -36z m170 -395 c-41 -41 -79 -75 -85 -75 -6 0 -44 34 -85 75 l-75 75 80 80 80 80 80 -80 80 -80 -75 -75z m1270 0 c-41 -41 -79 -75 -85 -75 -6 0 -44 34 -85 75 l-75 75 80 80 80 80 80 -80 80 -80 -75 -75z m-634 153 l75 -73 -81 -80 -80 -80 -77 78 -78 77 75 75 c41 41 78 75 82 75 5 0 42 -33 84 -72z m-3 -636 l77 -77 -80 -80 -80 -80 -80 80 -80 80 77 77 c43 43 80 78 83 78 3 0 40 -35 83 -78z"></path>
        </g>
    </g>
</svg>